<svg width="592" height="713" viewBox="0 0 592 713" fill="none" xmlns="http://www.w3.org/2000/svg">
<rect x="203" width="182" height="713" fill="#515151" fill-opacity="0.31"/>
<path d="M0 0H182V713H73C32.6832 713 0 680.317 0 640V0Z" fill="#515151" fill-opacity="0.31"/>
<path d="M406 0H527C562.898 0 592 29.1015 592 65V713H406V0Z" fill="#515151" fill-opacity="0.43"/>
<path d="M119.091 529V435.909H156.364C163.212 435.909 168.924 436.924 173.5 438.955C178.076 440.985 181.515 443.803 183.818 447.409C186.121 450.985 187.273 455.106 187.273 459.773C187.273 463.409 186.545 466.606 185.091 469.364C183.636 472.091 181.636 474.333 179.091 476.091C176.576 477.818 173.697 479.045 170.455 479.773V480.682C174 480.833 177.318 481.833 180.409 483.682C183.53 485.53 186.061 488.121 188 491.455C189.939 494.758 190.909 498.697 190.909 503.273C190.909 508.212 189.682 512.621 187.227 516.5C184.803 520.348 181.212 523.394 176.455 525.636C171.697 527.879 165.833 529 158.864 529H119.091ZM138.773 512.909H154.818C160.303 512.909 164.303 511.864 166.818 509.773C169.333 507.652 170.591 504.833 170.591 501.318C170.591 498.742 169.97 496.47 168.727 494.5C167.485 492.53 165.712 490.985 163.409 489.864C161.136 488.742 158.424 488.182 155.273 488.182H138.773V512.909ZM138.773 474.864H153.364C156.061 474.864 158.455 474.394 160.545 473.455C162.667 472.485 164.333 471.121 165.545 469.364C166.788 467.606 167.409 465.5 167.409 463.045C167.409 459.682 166.212 456.97 163.818 454.909C161.455 452.848 158.091 451.818 153.727 451.818H138.773V474.864ZM261.216 435.909H280.898V496.364C280.898 503.152 279.277 509.091 276.034 514.182C272.822 519.273 268.322 523.242 262.534 526.091C256.746 528.909 250.004 530.318 242.307 530.318C234.58 530.318 227.822 528.909 222.034 526.091C216.246 523.242 211.746 519.273 208.534 514.182C205.322 509.091 203.716 503.152 203.716 496.364V435.909H223.398V494.682C223.398 498.227 224.17 501.379 225.716 504.136C227.292 506.894 229.504 509.061 232.352 510.636C235.201 512.212 238.519 513 242.307 513C246.125 513 249.443 512.212 252.261 510.636C255.11 509.061 257.307 506.894 258.852 504.136C260.428 501.379 261.216 498.227 261.216 494.682V435.909ZM316.773 435.909V529H297.091V435.909H316.773ZM332.966 529V435.909H352.648V512.773H392.557V529H332.966ZM438.591 529H405.591V435.909H438.864C448.227 435.909 456.288 437.773 463.045 441.5C469.803 445.197 475 450.515 478.636 457.455C482.303 464.394 484.136 472.697 484.136 482.364C484.136 492.061 482.303 500.394 478.636 507.364C475 514.333 469.773 519.682 462.955 523.409C456.167 527.136 448.045 529 438.591 529ZM425.273 512.136H437.773C443.591 512.136 448.485 511.106 452.455 509.045C456.455 506.955 459.455 503.727 461.455 499.364C463.485 494.97 464.5 489.303 464.5 482.364C464.5 475.485 463.485 469.864 461.455 465.5C459.455 461.136 456.47 457.924 452.5 455.864C448.53 453.803 443.636 452.773 437.818 452.773H425.273V512.136Z" fill="#D7D4D4"/>
<path d="M145.551 296.95V284.273H205.281V296.95H183.016V357H167.817V296.95H145.551ZM215.118 357V284.273H230.494V314.28H261.709V284.273H277.05V357H261.709V326.957H230.494V357H215.118ZM305.104 284.273V357H289.727V284.273H305.104ZM378.586 284.273V357H365.304L333.664 311.226H333.131V357H317.755V284.273H331.249L362.641 330.011H363.28V284.273H378.586ZM391.29 357V284.273H406.666V316.339H407.625L433.797 284.273H452.227L425.239 316.837L452.547 357H434.152L414.23 327.099L406.666 336.332V357H391.29Z" fill="white" fill-opacity="0.67"/>
<path d="M154.358 147.818V206H142.057V147.818H154.358ZM164.479 147.818H179.649L195.672 186.909H196.354L212.376 147.818H227.547V206H215.615V168.131H215.132L200.075 205.716H191.95L176.893 167.989H176.411V206H164.479V147.818ZM247.71 206H234.528L254.614 147.818H270.466L290.523 206H277.341L262.767 161.114H262.312L247.71 206ZM246.886 183.131H278.023V192.733H246.886V183.131ZM333.371 166.625C332.973 165.242 332.414 164.021 331.695 162.96C330.975 161.881 330.094 160.972 329.053 160.233C328.03 159.475 326.856 158.898 325.53 158.5C324.223 158.102 322.774 157.903 321.183 157.903C318.21 157.903 315.596 158.642 313.342 160.119C311.107 161.597 309.365 163.746 308.115 166.568C306.865 169.371 306.24 172.799 306.24 176.852C306.24 180.905 306.856 184.352 308.087 187.193C309.318 190.034 311.06 192.203 313.314 193.699C315.568 195.176 318.229 195.915 321.297 195.915C324.081 195.915 326.458 195.422 328.428 194.438C330.416 193.434 331.931 192.023 332.973 190.205C334.034 188.386 334.564 186.237 334.564 183.756L337.064 184.125H322.064V174.864H346.411V182.193C346.411 187.307 345.331 191.701 343.172 195.375C341.013 199.03 338.039 201.852 334.251 203.841C330.464 205.811 326.126 206.795 321.24 206.795C315.786 206.795 310.994 205.593 306.865 203.188C302.736 200.763 299.517 197.326 297.206 192.875C294.914 188.405 293.768 183.102 293.768 176.966C293.768 172.25 294.45 168.045 295.814 164.352C297.196 160.64 299.128 157.496 301.609 154.92C304.09 152.345 306.979 150.384 310.274 149.04C313.57 147.695 317.14 147.023 320.984 147.023C324.28 147.023 327.348 147.506 330.189 148.472C333.03 149.419 335.549 150.763 337.746 152.506C339.962 154.248 341.77 156.322 343.172 158.727C344.573 161.114 345.473 163.746 345.871 166.625H333.371ZM367.952 147.818V206H355.651V147.818H367.952ZM426.737 147.818V206H416.112L390.8 169.381H390.374V206H378.072V147.818H388.868L413.982 184.409H414.493V147.818H426.737ZM436.901 206V147.818H476.105V157.96H449.202V171.824H474.088V181.966H449.202V195.858H476.219V206H436.901Z" fill="white" fill-opacity="0.44"/>
</svg>
