<svg width="406" height="353" viewBox="0 0 406 353" fill="none" xmlns="http://www.w3.org/2000/svg">
<g filter="url(#filter0_d_99_17)">
<path d="M8.21733 334V239.455H46.0724C53.0279 239.455 58.8293 240.486 63.4766 242.548C68.1238 244.61 71.617 247.472 73.956 251.134C76.295 254.766 77.4645 258.951 77.4645 263.691C77.4645 267.384 76.7259 270.631 75.2486 273.432C73.7713 276.202 71.7401 278.479 69.1548 280.264C66.6004 282.018 63.6766 283.265 60.3835 284.004V284.927C63.9844 285.081 67.3544 286.096 70.4936 287.974C73.6636 289.851 76.2334 292.482 78.2031 295.868C80.1728 299.223 81.1577 303.223 81.1577 307.871C81.1577 312.887 79.9112 317.365 77.4183 321.305C74.9562 325.213 71.3092 328.306 66.4773 330.584C61.6454 332.861 55.6901 334 48.6115 334H8.21733ZM28.2067 317.658H44.5028C50.0734 317.658 54.1359 316.596 56.6903 314.472C59.2448 312.318 60.522 309.456 60.522 305.886C60.522 303.27 59.8911 300.961 58.6293 298.961C57.3674 296.96 55.567 295.391 53.228 294.252C50.9197 293.113 48.1652 292.544 44.9645 292.544H28.2067V317.658ZM28.2067 279.018H43.0256C45.7647 279.018 48.196 278.541 50.3196 277.587C52.474 276.602 54.1667 275.217 55.3977 273.432C56.6596 271.647 57.2905 269.508 57.2905 267.015C57.2905 263.599 56.0748 260.844 53.6435 258.751C51.2429 256.659 47.8267 255.612 43.3949 255.612H28.2067V279.018ZM152.563 239.455H172.552V300.854C172.552 307.748 170.906 313.78 167.613 318.95C164.35 324.121 159.78 328.152 153.902 331.045C148.024 333.908 141.176 335.339 133.358 335.339C125.51 335.339 118.647 333.908 112.769 331.045C106.891 328.152 102.32 324.121 99.0581 318.95C95.7958 313.78 94.1646 307.748 94.1646 300.854V239.455H114.154V299.146C114.154 302.746 114.939 305.947 116.508 308.748C118.109 311.549 120.355 313.749 123.248 315.349C126.141 316.95 129.511 317.75 133.358 317.75C137.236 317.75 140.606 316.95 143.469 315.349C146.362 313.749 148.593 311.549 150.162 308.748C151.763 305.947 152.563 302.746 152.563 299.146V239.455ZM208.988 239.455V334H188.999V239.455H208.988ZM225.434 334V239.455H245.423V317.519H285.956V334H225.434ZM332.71 334H299.194V239.455H332.987C342.496 239.455 350.683 241.347 357.546 245.133C364.409 248.888 369.688 254.289 373.381 261.337C377.105 268.384 378.967 276.817 378.967 286.635C378.967 296.483 377.105 304.947 373.381 312.026C369.688 319.104 364.379 324.536 357.454 328.322C350.56 332.107 342.312 334 332.71 334ZM319.183 316.873H331.879C337.788 316.873 342.758 315.826 346.79 313.734C350.852 311.61 353.899 308.332 355.93 303.901C357.992 299.438 359.023 293.683 359.023 286.635C359.023 279.649 357.992 273.94 355.93 269.508C353.899 265.076 350.868 261.814 346.836 259.721C342.804 257.628 337.834 256.582 331.925 256.582H319.183V316.873Z" fill="black"/>
</g>
<g filter="url(#filter1_d_99_17)">
<path d="M34.5511 119.95V107.273H94.2812V119.95H72.0156V180H56.8168V119.95H34.5511ZM104.118 180V107.273H119.494V137.28H150.709V107.273H166.05V180H150.709V149.957H119.494V180H104.118ZM194.104 107.273V180H178.727V107.273H194.104ZM267.586 107.273V180H254.304L222.664 134.226H222.131V180H206.755V107.273H220.249L251.641 153.011H252.28V107.273H267.586ZM280.29 180V107.273H295.666V139.339H296.625L322.797 107.273H341.227L314.239 139.837L341.547 180H323.152L303.23 150.099L295.666 159.332V180H280.29Z" fill="black"/>
</g>
<g filter="url(#filter2_d_99_17)">
<path d="M67.8864 15.4545V62H58.0455V15.4545H67.8864ZM75.983 15.4545H88.1193L100.938 46.7273H101.483L114.301 15.4545H126.438V62H116.892V31.7045H116.506L104.46 61.7727H97.9602L85.9148 31.5909H85.5284V62H75.983V15.4545ZM142.568 62H132.023L148.091 15.4545H160.773L176.818 62H166.273L154.614 26.0909H154.25L142.568 62ZM141.909 43.7045H166.818V51.3864H141.909V43.7045ZM211.097 30.5C210.778 29.3939 210.331 28.4167 209.756 27.5682C209.18 26.7045 208.475 25.9773 207.642 25.3864C206.824 24.7803 205.884 24.3182 204.824 24C203.778 23.6818 202.619 23.5227 201.347 23.5227C198.968 23.5227 196.877 24.1136 195.074 25.2955C193.286 26.4773 191.892 28.197 190.892 30.4545C189.892 32.697 189.392 35.4394 189.392 38.6818C189.392 41.9242 189.884 44.6818 190.869 46.9545C191.854 49.2273 193.248 50.9621 195.051 52.1591C196.854 53.3409 198.983 53.9318 201.438 53.9318C203.665 53.9318 205.566 53.5379 207.142 52.75C208.733 51.947 209.945 50.8182 210.778 49.3636C211.627 47.9091 212.051 46.1894 212.051 44.2045L214.051 44.5H202.051V37.0909H221.528V42.9545C221.528 47.0455 220.665 50.5606 218.938 53.5C217.21 56.4242 214.831 58.6818 211.801 60.2727C208.771 61.8485 205.301 62.6364 201.392 62.6364C197.028 62.6364 193.195 61.6742 189.892 59.75C186.589 57.8106 184.013 55.0606 182.165 51.5C180.331 47.9242 179.415 43.6818 179.415 38.7727C179.415 35 179.96 31.6364 181.051 28.6818C182.157 25.7121 183.703 23.197 185.688 21.1364C187.672 19.0758 189.983 17.5076 192.619 16.4318C195.256 15.3561 198.112 14.8182 201.188 14.8182C203.824 14.8182 206.278 15.2045 208.551 15.9773C210.824 16.7348 212.839 17.8106 214.597 19.2045C216.369 20.5985 217.816 22.2576 218.938 24.1818C220.059 26.0909 220.778 28.197 221.097 30.5H211.097ZM238.761 15.4545V62H228.92V15.4545H238.761ZM285.79 15.4545V62H277.29L257.04 32.7045H256.699V62H246.858V15.4545H255.494L275.585 44.7273H275.994V15.4545H285.79ZM293.92 62V15.4545H325.284V23.5682H303.761V34.6591H323.67V42.7727H303.761V53.8864H325.375V62H293.92Z" fill="black"/>
</g>
<defs>
<filter id="filter0_d_99_17" x="4.21729" y="239.455" width="378.749" height="103.884" filterUnits="userSpaceOnUse" color-interpolation-filters="sRGB">
<feFlood flood-opacity="0" result="BackgroundImageFix"/>
<feColorMatrix in="SourceAlpha" type="matrix" values="0 0 0 0 0 0 0 0 0 0 0 0 0 0 0 0 0 0 127 0" result="hardAlpha"/>
<feOffset dy="4"/>
<feGaussianBlur stdDeviation="2"/>
<feComposite in2="hardAlpha" operator="out"/>
<feColorMatrix type="matrix" values="0 0 0 0 0 0 0 0 0 0 0 0 0 0 0 0 0 0 0.25 0"/>
<feBlend mode="normal" in2="BackgroundImageFix" result="effect1_dropShadow_99_17"/>
<feBlend mode="normal" in="SourceGraphic" in2="effect1_dropShadow_99_17" result="shape"/>
</filter>
<filter id="filter1_d_99_17" x="30.551" y="107.273" width="314.996" height="80.7271" filterUnits="userSpaceOnUse" color-interpolation-filters="sRGB">
<feFlood flood-opacity="0" result="BackgroundImageFix"/>
<feColorMatrix in="SourceAlpha" type="matrix" values="0 0 0 0 0 0 0 0 0 0 0 0 0 0 0 0 0 0 127 0" result="hardAlpha"/>
<feOffset dy="4"/>
<feGaussianBlur stdDeviation="2"/>
<feComposite in2="hardAlpha" operator="out"/>
<feColorMatrix type="matrix" values="0 0 0 0 0 0 0 0 0 0 0 0 0 0 0 0 0 0 0.25 0"/>
<feBlend mode="normal" in2="BackgroundImageFix" result="effect1_dropShadow_99_17"/>
<feBlend mode="normal" in="SourceGraphic" in2="effect1_dropShadow_99_17" result="shape"/>
</filter>
<filter id="filter2_d_99_17" x="54.0454" y="14.8184" width="275.33" height="55.8179" filterUnits="userSpaceOnUse" color-interpolation-filters="sRGB">
<feFlood flood-opacity="0" result="BackgroundImageFix"/>
<feColorMatrix in="SourceAlpha" type="matrix" values="0 0 0 0 0 0 0 0 0 0 0 0 0 0 0 0 0 0 127 0" result="hardAlpha"/>
<feOffset dy="4"/>
<feGaussianBlur stdDeviation="2"/>
<feComposite in2="hardAlpha" operator="out"/>
<feColorMatrix type="matrix" values="0 0 0 0 0 0 0 0 0 0 0 0 0 0 0 0 0 0 0.25 0"/>
<feBlend mode="normal" in2="BackgroundImageFix" result="effect1_dropShadow_99_17"/>
<feBlend mode="normal" in="SourceGraphic" in2="effect1_dropShadow_99_17" result="shape"/>
</filter>
</defs>
</svg>
